<svg
        width="451.1"
        height="97.67735239330537"
        viewBox="0 0 370 80.1166490479339"
        xmlns="http://www.w3.org/2000/svg"
      >
        <g
          transform="matrix(1.0526426533096782,0,0,1.0526426533096782,-2.106338123947484,-12.478026108705238)"
          fill="#000000"
        >
          <path d="M94.168,11.854H50.287h-1.495H4.911c-1.563,0-2.91,1.189-2.91,2.752V68.7v0.188V73.9v0.313c0,1.563,1.347,2.877,2.91,2.877  h35.146c-0.041,0.896-0.321,4.756-2.155,6.623c-1.445,1.475-3.453,2.854-2.669,3.563c0.19,0.436,1.091,0.688,3.14,0.688  c4.521,0,9.416,0,11.208,0c0.453,0,0.707,0,0.707,0c1.792,0,6.688,0,11.208,0c2.334,0,3.15-0.383,3.158-0.952h-0.08v-0.189H64.49  c-0.105-0.77-1.662-1.907-2.84-3.106c-1.834-1.868-2.113-5.725-2.154-6.622H94.17c1.564,0,2.83-1.314,2.83-2.878v-0.313v-5.012  v-0.188V14.607C97,13.042,95.73,11.854,94.168,11.854z M49.5,74.35c-1.021,0-1.847-0.824-1.847-1.846  c0-1.02,0.826-1.846,1.847-1.846c1.02,0,1.846,0.826,1.846,1.846C51.348,73.525,50.52,74.35,49.5,74.35z M92.994,64.695H6.007V15.67  h86.987V64.695z"
          ></path>
          <g>
            <g>
              <path
                d="M19.778,33.744h3.29v6.038h0.043c0.347-0.455,0.78-0.801,1.299-1.082c0.476-0.26,1.103-0.412,1.709-0.412    c2.1,0,3.701,1.45,3.701,4.632v6.189h-3.29v-5.822c0-1.385-0.476-2.338-1.709-2.338c-0.866,0-1.407,0.563-1.645,1.147    c-0.087,0.217-0.109,0.499-0.109,0.736v6.276h-3.29L19.778,33.744L19.778,33.744z"
              ></path>
              <path
                d="M36.007,35.497v3.03h2.359v2.424h-2.359v3.831c0,1.277,0.303,1.861,1.299,1.861c0.411,0,0.735-0.043,0.974-0.086    l0.021,2.489c-0.433,0.173-1.212,0.282-2.143,0.282c-1.061,0-1.948-0.368-2.467-0.909c-0.606-0.627-0.909-1.645-0.909-3.138V40.95    h-1.407v-2.424h1.407v-2.294L36.007,35.497z"
              ></path>
              <path
                d="M43.948,35.497v3.03h2.359v2.424h-2.359v3.831c0,1.277,0.303,1.861,1.299,1.861c0.411,0,0.735-0.043,0.974-0.086    l0.022,2.489c-0.433,0.173-1.212,0.282-2.143,0.282c-1.061,0-1.947-0.368-2.467-0.909c-0.606-0.627-0.909-1.645-0.909-3.138V40.95    h-1.407v-2.424h1.407v-2.294L43.948,35.497z"
              ></path>
              <path
                d="M48.209,42.076c0-1.385-0.043-2.576-0.086-3.55h2.855l0.151,1.472h0.043c0.779-1.126,1.992-1.71,3.528-1.71    c2.314,0,4.395,2.013,4.395,5.389c0,3.853-2.445,5.671-4.806,5.671c-1.276,0-2.272-0.519-2.749-1.212h-0.044v5.258h-3.289    L48.209,42.076L48.209,42.076z M51.498,44.565c0,0.26,0.021,0.498,0.066,0.692c0.215,0.888,0.973,1.558,1.926,1.558    c1.428,0,2.271-1.19,2.271-2.987c0-1.688-0.759-2.964-2.229-2.964c-0.933,0-1.755,0.692-1.97,1.666    c-0.045,0.173-0.065,0.39-0.065,0.585L51.498,44.565L51.498,44.565z"
              ></path>
              <path
                d="M60.91,40.388c0-1.169,0.8-1.991,1.947-1.991c1.146,0,1.904,0.801,1.926,1.991c0,1.125-0.779,1.97-1.947,1.97    C61.71,42.357,60.91,41.513,60.91,40.388z M60.91,47.378c0-1.147,0.8-1.991,1.947-1.991c1.146,0,1.904,0.822,1.926,1.991    c0,1.126-0.779,1.97-1.947,1.97C61.71,49.348,60.91,48.504,60.91,47.378z"
              ></path>
              <path
                d="M65.799,49.976l4.631-15.691h2.188l-4.634,15.691H65.799z"
              ></path>
              <path
                d="M72.961,49.976l4.631-15.691h2.188l-4.633,15.691H72.961z"
              ></path>
            </g>
          </g>
        </g>
        <g
          featurekey="nameFeature-0"
          transform="matrix(1.8664335751168315,0,0,1.8664335751168315,117.59416794758037,-19.304232574437766)"
          fill="#000000"
        >
          <path
            d="M16.191 40.39063 c-8.6719 0 -14.902 -5.8789 -14.902 -14.746 c0 -8.9258 6.2305 -14.766 14.902 -14.766 c8.6914 0 14.922 5.8398 14.922 14.766 c0 8.8672 -6.2305 14.746 -14.922 14.746 z M16.191 33.6328 c4.3359 0 7.5781 -3.0664 7.5781 -7.9883 s-3.2422 -8.0078 -7.5781 -8.0078 c-4.3164 0 -7.5195 3.0859 -7.5195 8.0078 s3.2031 7.9883 7.5195 7.9883 z M42.055156249999996 33.4766 l8.3984 0 l0 6.5234 l-15.84 0 l0 -28.711 l7.4414 0 l0 22.188 z M53.26950625 40 l0 -28.711 l7.4414 0 l0 28.711 l-7.4414 0 z M84.757875 11.289000000000001 l7.9297 0 l-10.645 28.711 l-8.3594 0 l-10.566 -28.711 l7.9297 0 l6.8555 20.176 z M95.093725 40 l0 -28.711 l7.4414 0 l0 28.711 l-7.4414 0 z M127.67609375 40 l-1.8555 -5.3125 l-11.484 0 l-1.8359 5.3125 l-7.5586 0 l10.566 -28.711 l9.1602 0 l10.566 28.711 l-7.5586 0 z M116.46509375 28.555 l7.2266 0 l-3.6133 -10.391 z"
          ></path>
        </g>
        <g
          featurekey="sloganFeature-0"
          transform="matrix(0.8942057551942555,0,0,0.8942057551942555,144.91254602288836,61.13605703986458)"
          fill="#000000"
        >
          <path
            d="M11.465 20 l-0.92773 -2.6563 l-5.7422 0 l-0.91797 2.6563 l-3.7793 0 l5.2832 -14.355 l4.5801 0 l5.2832 14.355 l-3.7793 0 z M5.8594 14.2773 l3.6133 0 l-1.8066 -5.1953 z M33.417946875 5.645 c2.9395 0 4.7363 2.1582 4.7363 4.7949 c0 2.7051 -1.7969 4.6973 -4.7363 4.6973 l-2.5977 0 l0 4.8633 l-3.7207 0 l0 -14.355 l6.3184 0 z M32.773446875 12.060500000000001 c1.3281 0 1.8457 -0.625 1.8457 -1.6797 c0 -0.99609 -0.51758 -1.6602 -1.8457 -1.6602 l-1.9531 0 l0 3.3398 l1.9531 0 z M51.39621875 8.877 l-5 0 l0 2.3438 l4.4531 0 l0 3.2031 l-4.4531 0 l0 2.3145 l5 0 l0 3.2617 l-8.7207 0 l0 -14.355 l8.7207 0 l0 3.2324 z M68.555125 20 l-4.4141 0 l-3.7402 -6.1523 l0 6.1523 l-3.7207 0 l0 -14.355 l5.498 0 c3.4375 0 4.8047 1.9727 4.8047 4.4336 c0 2.0215 -1.1914 3.2031 -2.9102 3.5742 z M63.437525 10.1172 c0 -0.87891 -0.49805 -1.4355 -1.875 -1.4355 l-1.1621 0 l0 2.8809 l1.1621 0 c1.377 0 1.875 -0.56641 1.875 -1.4453 z M77.61715625 20.19531 c-3.1445 0 -5.7031 -1.5137 -6.1035 -4.3945 l3.8574 -0.87891 c0.10742 1.5625 1.084 2.2949 2.4023 2.2949 c0.95703 0 1.543 -0.45898 1.543 -1.2793 c0 -1.0742 -1.377 -1.4746 -2.9785 -2.0215 c-2.0215 -0.67383 -4.2871 -1.5137 -4.2871 -4.1602 c0 -2.6758 2.168 -4.3164 5.2637 -4.3164 c2.5195 0 5.2637 0.99609 5.8594 3.9648 l-3.5742 0.87891 c-0.20508 -1.2988 -0.88867 -1.8652 -2.041 -1.8652 c-1.0254 0 -1.748 0.40039 -1.748 1.2402 c0 0.80078 1.2891 1.123 2.7637 1.6016 c2.0605 0.68359 4.5996 1.6211 4.5996 4.4629 c0 3.1543 -2.6563 4.4727 -5.5566 4.4727 z M94.453121875 20.19531 c-4.3359 0 -7.4512 -2.9395 -7.4512 -7.373 c0 -4.4629 3.1152 -7.3828 7.4512 -7.3828 c4.3457 0 7.4609 2.9199 7.4609 7.3828 c0 4.4336 -3.1152 7.373 -7.4609 7.373 z M94.453121875 16.8164 c2.168 0 3.7891 -1.5332 3.7891 -3.9941 s-1.6211 -4.0039 -3.7891 -4.0039 c-2.1582 0 -3.7598 1.543 -3.7598 4.0039 s1.6016 3.9941 3.7598 3.9941 z M116.5430625 5.645 l3.7207 0 l0 14.355 l-4.4238 0 l-5.4785 -9.3164 l0 9.3164 l-3.7207 0 l0 -14.355 l4.375 0 l5.5273 9.2676 l0 -9.2676 z M135.8009375 20 l-0.92773 -2.6563 l-5.7422 0 l-0.91797 2.6563 l-3.7793 0 l5.2832 -14.355 l4.5801 0 l5.2832 14.355 l-3.7793 0 z M130.1953375 14.2773 l3.6133 0 l-1.8066 -5.1953 z M147.480503125 16.7383 l4.1992 0 l0 3.2617 l-7.9199 0 l0 -14.355 l3.7207 0 l0 11.094 z M172.099571875 12.3828 c1.5234 0.46875 2.5391 1.4648 2.5391 3.5156 c0 2.5 -1.3965 4.1016 -4.7754 4.1016 l-6.123 0 l0 -14.355 l4.834 0 c3.4473 0 5.0488 1.4551 5.0488 4.0137 c0 1.2012 -0.48828 2.1777 -1.5234 2.7246 z M168.642571875 8.682 l-1.3281 0 l0 2.5391 l1.3281 0 c1.2402 0 1.5723 -0.55664 1.5723 -1.3184 c0 -0.72266 -0.41992 -1.2207 -1.5723 -1.2207 z M169.140671875 16.8555 c1.6016 0 1.8945 -0.69336 1.8945 -1.377 c0 -0.67383 -0.25391 -1.4551 -1.8945 -1.4551 l-1.8262 0 l0 2.832 l1.8262 0 z M183.0176125 16.7383 l4.1992 0 l0 3.2617 l-7.9199 0 l0 -14.355 l3.7207 0 l0 11.094 z M198.0957 20.19531 c-4.3359 0 -7.4512 -2.9395 -7.4512 -7.373 c0 -4.4629 3.1152 -7.3828 7.4512 -7.3828 c4.3457 0 7.4609 2.9199 7.4609 7.3828 c0 4.4336 -3.1152 7.373 -7.4609 7.373 z M198.0957 16.8164 c2.168 0 3.7891 -1.5332 3.7891 -3.9941 s-1.6211 -4.0039 -3.7891 -4.0039 c-2.1582 0 -3.7598 1.543 -3.7598 4.0039 s1.6016 3.9941 3.7598 3.9941 z M216.562540625 20.19531 c-4.2188 0 -7.2363 -2.9395 -7.2363 -7.334 c0 -4.4824 3.1152 -7.4219 7.4512 -7.4219 c2.8809 0 5.2051 1.2793 6.4648 3.3984 l-3.2617 1.7383 c-0.63477 -1.3184 -1.7773 -1.9531 -3.2031 -1.9531 c-2.1582 0 -3.7402 1.4941 -3.7402 4.1406 c0 2.4805 1.4063 4.2578 3.8867 4.2578 c1.377 0 2.9004 -0.55664 3.3594 -2.1777 l-3.3398 0 l0 -2.9395 l6.8164 0 l0 8.0957 l-2.8809 0 l0 -1.543 c-0.89844 1.0645 -2.2754 1.7383 -4.3164 1.7383 z"
          ></path>
        </g>
      </svg>